<?xml version="1.0" encoding="utf-8"?>
<!-- Svg Vector Icons : http://www.onlinewebfonts.com/icon -->
<!DOCTYPE svg PUBLIC "-//W3C//DTD SVG 1.1//EN" "http://www.w3.org/Graphics/SVG/1.1/DTD/svg11.dtd">
<svg version="1.1" xmlns="http://www.w3.org/2000/svg" xmlns:xlink="http://www.w3.org/1999/xlink" x="0px" y="0px" viewBox="0 0 1000 1000" enable-background="new 0 0 1000 1000" xml:space="preserve">
<metadata> Svg Vector Icons : http://www.onlinewebfonts.com/icon </metadata>
<g><g transform="translate(0.000000,511.000000) scale(0.100000,-0.100000)"><path d="M4352,4980.3c-313.5-44.5-622.6-115.6-887.1-204.6C1679.5,4177.6,398.8,2639,136.4,778C87.5,424.5,87.5-222.6,138.6-556.1c164.5-1087.2,635.9-2036.7,1387.4-2786c1932.2-1934.4,5038.3-1925.5,6961.6,15.6C9228-2577.2,9692.7-1643.3,9859.5-567.2c62.3,402.5,51.1,1071.7-22.2,1489.7c-146.8,827.1-446.9,1514.2-956.1,2190.1c-193.4,253.5-675.9,729.3-956.1,938.3c-604.8,449.1-1331.8,764.9-2083.4,900.5C5510.5,5011.4,4674.4,5027,4352,4980.3z M4576.6,2896.9c235.7-80,349.1-335.7,353.5-791.5c0-189-15.6-204.6-217.9-204.6c-291.3,0-473.6-122.3-600.3-400.2c-102.3-220.1-68.9-498,68.9-587c26.7-17.8,169-68.9,315.7-113.4c146.7-44.5,442.5-146.7,658.2-226.8L5546,426.7l220.1-244.6L5984-62.5l62.3-224.6c91.2-329.1,151.2-771.5,151.2-1136.2c2.2-595.9,64.5-980.5,184.5-1113.9c104.5-122.3,193.4-95.6,393.6,115.6c271.3,286.8,544.7,700.4,780.4,1176.2c191.2,391.3,286.8,675.9,302.4,911.6c11.1,162.3,4.5,200.1-71.2,433.6c-153.4,478-135.6,547,182.3,733.7c284.6,169,460.3,297.9,547,406.9c144.5,175.7,157.9,220.1,171.2,560.3l13.3,311.3l104.5-215.7c131.2-264.6,264.6-667,326.9-987.2c71.2-349.1,86.7-998.3,33.3-1369.6C8941.2-2048,7827.3-3382.1,6315.3-3877.9c-1507.5-495.8-3188.4-97.8-4280.1,1013.9l-149,151.2l97.8,275.7c149,409.1,293.5,740.4,386.9,884.9c46.7,71.2,169,209,273.5,306.8c104.5,97.8,200.1,197.9,211.2,222.3c57.8,111.2-48.9,191.2-464.7,360.2c-340.2,135.6-402.4,169-564.8,306.8c-75.6,64.5-162.3,131.2-191.2,146.8c-28.9,15.5-131.2,80-231.2,146.7C1285.9,15.4,1210.3,50.9,1185.9,42c-80-31.1-166.8-275.7-235.7-660.4c-20-124.5-44.5-211.2-51.1-193.4c-8.9,17.8-31.1,124.5-53.4,233.5c-55.6,282.4-55.6,1089.5,0,1389.6c82.3,446.9,253.5,945,449.1,1300.7c115.6,209,242.4,398,224.6,333.5c-53.4-193.4-80-358-80-493.6c0-140.1,6.7-166.8,60-229c57.8-68.9,64.5-71.2,189-60c160.1,13.3,502.5,175.7,622.6,293.5c44.5,42.3,164.5,226.8,266.8,406.9l184.5,326.8l15.6-133.4c8.9-73.4,31.1-266.8,51.1-429.1c35.6-320.2,60-384.7,180.1-504.7c157.9-160.1,264.6-86.7,333.5,233.5c151.2,707.1,222.3,916.1,335.7,989.4C3778.4,2912.5,4427.6,2948.1,4576.6,2896.9z"/></g></g>
</svg>