<?xml version="1.0" encoding="utf-8"?>
<!-- Svg Vector Icons : http://www.onlinewebfonts.com/icon -->
<!DOCTYPE svg PUBLIC "-//W3C//DTD SVG 1.1//EN" "http://www.w3.org/Graphics/SVG/1.1/DTD/svg11.dtd">
<svg version="1.1" xmlns="http://www.w3.org/2000/svg" xmlns:xlink="http://www.w3.org/1999/xlink" x="0px" y="0px" viewBox="0 0 1000 1000" enable-background="new 0 0 1000 1000" xml:space="preserve">
<metadata> Svg Vector Icons : http://www.onlinewebfonts.com/icon </metadata>
<g><path fill="#9698a5" d="M908.3,132.5h-81.7V91.7c0-24.5-24.5-40.8-40.8-40.8S745,67.2,745,91.7v40.8H540.8V91.7c0-24.5-16.3-40.8-40.8-40.8c-24.5,0-40.8,16.3-40.8,40.8v40.8H255V91.7c0-24.5-16.3-40.8-40.8-40.8c-24.5,0-40.8,16.3-40.8,40.8v40.8H91.7c-40.8,0-81.7,32.7-81.7,81.7v653.3c0,49,32.7,81.7,81.7,81.7h816.7c40.8,0,81.7-32.7,81.7-81.7V214.2C990,165.2,957.3,132.5,908.3,132.5z M908.3,834.8c0,16.3-16.3,32.7-32.7,32.7H124.3c-16.3,0-32.7-16.3-32.7-32.7v-588c0-16.3,16.3-32.7,32.7-32.7h49V255c0,24.5,16.3,40.8,40.8,40.8c24.5,0,40.8-16.3,40.8-40.8v-40.8h204.2V255c0,24.5,16.3,40.8,40.8,40.8c24.5,0,40.8-16.3,40.8-40.8v-40.8H745V255c0,24.5,16.3,40.8,40.8,40.8c24.5,0,40.8-16.3,40.8-40.8v-40.8h49c16.3,0,32.7,16.3,32.7,32.7V834.8z"/><path fill="#9698a5" d="M173.3,377.5h163.3v81.7H173.3V377.5z"/><path fill="#9698a5" d="M418.3,377.5h163.3v81.7H418.3V377.5z"/><path fill="#9698a5" d="M663.3,377.5h163.3v81.7H663.3V377.5z"/><path fill="#9698a5" d="M173.3,540.8h163.3v81.7H173.3V540.8z"/><path fill="#9698a5" d="M418.3,540.8h163.3v81.7H418.3V540.8z"/><path fill="#9698a5" d="M663.3,540.8h163.3v81.7H663.3V540.8z"/><path fill="#9698a5" d="M173.3,704.2h163.3v81.7H173.3V704.2z"/><path fill="#9698a5" d="M418.3,704.2h163.3v81.7H418.3V704.2z"/><path fill="#9698a5" d="M663.3,704.2h163.3v81.7H663.3V704.2z"/></g>
</svg>
