<?xml version="1.0" encoding="utf-8"?>
<!-- Svg Vector Icons : http://www.onlinewebfonts.com/icon -->
<!DOCTYPE svg PUBLIC "-//W3C//DTD SVG 1.1//EN" "http://www.w3.org/Graphics/SVG/1.1/DTD/svg11.dtd">
<svg version="1.1" xmlns="http://www.w3.org/2000/svg" xmlns:xlink="http://www.w3.org/1999/xlink" x="0px" y="0px" viewBox="0 0 1000 1000" enable-background="new 0 0 1000 1000" xml:space="preserve">
<metadata> Svg Vector Icons : http://www.onlinewebfonts.com/icon </metadata>
<g><g><g><g><g><path fill="#9698a5" d="M941,451H59c-27,0-49,22-49,49c0,27,22,49,49,49h882c26.9,0,49-22,49-49C990,473,968,451,941,451z"/><path fill="#9698a5" d="M59,255h882c26.9,0,49-22,49-49s-22-49-49-49H59c-27,0-49,22-49,49S32,255,59,255z"/><path fill="#9698a5" d="M941,745H59c-27,0-49,22-49,49c0,26.9,22,49,49,49h882c26.9,0,49-22,49-49C990,767.1,968,745,941,745z"/></g></g></g></g><g></g><g></g><g></g><g></g><g></g><g></g><g></g><g></g><g></g><g></g><g></g><g></g><g></g><g></g><g></g></g>
</svg>
