<?xml version="1.0" encoding="utf-8"?>
<!-- Svg Vector Icons : http://www.onlinewebfonts.com/icon -->
<!DOCTYPE svg PUBLIC "-//W3C//DTD SVG 1.1//EN" "http://www.w3.org/Graphics/SVG/1.1/DTD/svg11.dtd">
<svg version="1.1" xmlns="http://www.w3.org/2000/svg" xmlns:xlink="http://www.w3.org/1999/xlink" x="0px" y="0px" viewBox="0 0 1000 1000" enable-background="new 0 0 1000 1000" xml:space="preserve">
<metadata> Svg Vector Icons : http://www.onlinewebfonts.com/icon </metadata>
<g><path fill="#44bbc0" d="M500,990C229.8,990,10,770.2,10,500S229.8,10,500,10s490,219.8,490,490c0,87.9-23.2,173.7-66.8,248.2c-8.2,13.8-26,18.1-39.5,10.3c-13.8-8.1-18.4-25.7-10.3-39.5c39.1-66.6,58.9-140.3,58.9-219c0-238.4-193.9-432.4-432.4-432.4C261.5,67.6,67.6,261.6,67.6,500S261.6,932.4,500,932.4c76.6,0,151.8-20.3,217.5-58.9c13.5-7.9,31.3-3.6,39.5,10.3c8,13.8,3.4,31.4-10.4,39.5C672.2,966.8,586.9,990,500,990z"/></g>
</svg>
