<?xml version="1.0" encoding="utf-8"?>
<!-- Svg Vector Icons : http://www.onlinewebfonts.com/icon -->
<!DOCTYPE svg PUBLIC "-//W3C//DTD SVG 1.1//EN" "http://www.w3.org/Graphics/SVG/1.1/DTD/svg11.dtd">
<svg version="1.1" xmlns="http://www.w3.org/2000/svg" xmlns:xlink="http://www.w3.org/1999/xlink" x="0px" y="0px" viewBox="0 0 1000 1000" enable-background="new 0 0 1000 1000" xml:space="preserve">
<metadata> Svg Vector Icons : http://www.onlinewebfonts.com/icon </metadata>
<g><path fill="#35bc7a" d="M59.3,500c0,243.4,197.3,440.7,440.7,440.7c243.4,0,440.7-197.3,440.7-440.7S743.4,59.3,500,59.3C256.6,59.3,59.3,256.6,59.3,500z"/><path fill="#35bc7a" d="M500,10C229.8,10,10,229.8,10,500c0,270.2,219.8,490,490,490c270.2,0,490-219.8,490-490C990,229.8,770.2,10,500,10z M500,917.9C269.5,917.9,82.1,730.5,82.1,500C82.1,269.5,269.5,82.1,500,82.1c230.5,0,417.9,187.5,417.9,417.9C917.9,730.5,730.5,917.9,500,917.9z"/><path fill="#35bc7a" d="M500,132.1c-202.8,0-367.9,165-367.9,367.9s165,367.9,367.9,367.9c202.8,0,367.9-165,367.9-367.9C867.9,297.2,702.8,132.1,500,132.1z"/></g>
</svg>
