<?xml version="1.0" encoding="utf-8"?>
<!-- Svg Vector Icons : http://www.onlinewebfonts.com/icon -->
<!DOCTYPE svg PUBLIC "-//W3C//DTD SVG 1.1//EN" "http://www.w3.org/Graphics/SVG/1.1/DTD/svg11.dtd">
<svg version="1.1" xmlns="http://www.w3.org/2000/svg" xmlns:xlink="http://www.w3.org/1999/xlink" x="0px" y="0px" viewBox="0 0 1000 1000" enable-background="new 0 0 1000 1000" xml:space="preserve">
<metadata> Svg Vector Icons : http://www.onlinewebfonts.com/icon </metadata>
<g><path d="M885.2,165.4L741.4,25.1c-9.6-9.6-22.7-15.1-36.3-15.1H166.7c-42.4,0-66.9,20.5-66.9,63.1v853.8c0,42.6,24.5,63.1,66.9,63.1h666.7c42.4,0,66.9-20.6,66.9-63.1V201.8C900.2,188.1,894.8,175,885.2,165.4L885.2,165.4z M859,926.9c0,14.2-11.5,25.7-25.6,25.7H166.7c-14.2,0-25.6-11.5-25.6-25.7V73.1c0-14.2,11.5-25.7,25.6-25.7h512.8v102.9h-0.1c0,42.6,34.5,77.2,76.9,77.2H782h77L859,926.9L859,926.9z M782,201.8h-25.6c-28.3,0-51.3-23.1-51.3-51.5h0.1V47.4L859,201.8L782,201.8L782,201.8z M487.2,176h128.2c7,0,12.8-5.8,12.8-12.9c0-7.1-5.8-12.9-12.8-12.9H487.2c-7.1,0-12.8,5.7-12.8,12.9C474.4,170.3,480.1,176,487.2,176L487.2,176z M487.2,253.2h128.2c7,0,12.8-5.8,12.8-12.9c0-7.1-5.8-12.9-12.8-12.9H487.2c-7.1,0-12.8,5.8-12.8,12.9C474.4,247.5,480.1,253.2,487.2,253.2L487.2,253.2z M474.4,317.6c0,7.1,5.7,12.9,12.8,12.9h307.7c7,0,12.8-5.8,12.8-12.9c0-7.1-5.8-12.9-12.8-12.9H487.2C480.1,304.7,474.4,310.4,474.4,317.6L474.4,317.6z M794.9,459.1H205.1c-7.1,0-12.8,5.7-12.8,12.9c0,7.1,5.7,12.9,12.8,12.9h589.8c7,0,12.8-5.8,12.8-12.9C807.7,464.8,801.9,459.1,794.9,459.1L794.9,459.1z M794.9,536.3H205.1c-7.1,0-12.8,5.7-12.8,12.9c0,7.1,5.7,12.9,12.8,12.9h589.8c7,0,12.8-5.8,12.8-12.9C807.7,542,801.9,536.3,794.9,536.3L794.9,536.3z M794.9,613.5H205.1c-7.1,0-12.8,5.7-12.8,12.9c0,7.1,5.7,12.9,12.8,12.9h589.8c7,0,12.8-5.8,12.8-12.9C807.7,619.2,801.9,613.5,794.9,613.5L794.9,613.5z M794.9,381.9H205.1c-7.1,0-12.8,5.7-12.8,12.9c0,7.1,5.7,12.9,12.8,12.9h589.8c7,0,12.8-5.8,12.8-12.9C807.7,387.7,801.9,381.9,794.9,381.9L794.9,381.9z M241.4,310.3h130.9c14.2,0,25.6-11.5,25.6-25.7V170.4c0-14.2-11.5-25.7-25.6-25.7H241.4c-14.2,0-25.6,11.5-25.6,25.7v114.2C215.8,298.8,227.2,310.3,241.4,310.3L241.4,310.3z M243.6,176h128.2V279H243.6V176L243.6,176z"/><path d="M796.9,691.9H207.1c-7.1,0-12.8,5.7-12.8,12.9c0,7.1,5.7,12.9,12.8,12.9h589.8c7,0,12.8-5.8,12.8-12.9C809.7,697.6,803.9,691.9,796.9,691.9L796.9,691.9z"/><path d="M796.9,773.3H207.1c-7.1,0-12.8,5.7-12.8,12.9c0,7.1,5.7,12.9,12.8,12.9h589.8c7,0,12.8-5.8,12.8-12.9C809.7,779,803.9,773.3,796.9,773.3L796.9,773.3z"/><path d="M796.9,859.7H207.1c-7.1,0-12.8,5.7-12.8,12.9c0,7.1,5.7,12.9,12.8,12.9h589.8c7,0,12.8-5.8,12.8-12.9C809.7,865.5,803.9,859.7,796.9,859.7L796.9,859.7z"/></g>
</svg>