<?xml version="1.0" encoding="utf-8"?>
<!-- Svg Vector Icons : http://www.onlinewebfonts.com/icon -->
<!DOCTYPE svg PUBLIC "-//W3C//DTD SVG 1.1//EN" "http://www.w3.org/Graphics/SVG/1.1/DTD/svg11.dtd">
<svg version="1.1" xmlns="http://www.w3.org/2000/svg" xmlns:xlink="http://www.w3.org/1999/xlink" x="0px" y="0px" viewBox="0 0 1000 1000" enable-background="new 0 0 1000 1000" xml:space="preserve">
<metadata> Svg Vector Icons : http://www.onlinewebfonts.com/icon </metadata>
<g><path d="M809.9,990H190.1c-38.3,0-69.5-31.1-69.5-69.4V202.4c0-38.3,31.2-69.5,69.5-69.5h619.7c38.3,0,69.5,31.2,69.5,69.5v718.2C879.3,958.9,848.2,990,809.9,990 M190.1,172.9c-16.3,0-29.5,13.2-29.5,29.5v718.2c0,16.2,13.2,29.5,29.5,29.5h619.7c16.3,0,29.5-13.3,29.5-29.5V202.4c0-16.3-13.2-29.5-29.5-29.5H190.1z"/><path d="M701.8,377.9H475.4c-8.3,0-15-6.7-15-15c0-8.3,6.7-15,15-15h226.4c8.3,0,15,6.7,15,15C716.8,371.2,710.1,377.9,701.8,377.9z"/><path d="M701.8,496.1H439.3c-8.3,0-15-6.7-15-15c0-8.3,6.7-15,15-15h262.5c8.3,0,15,6.7,15,15C716.8,489.3,710.1,496.1,701.8,496.1z"/><path d="M701.8,617.5H475.4c-8.3,0-15-6.7-15-15c0-8.3,6.7-15,15-15h226.4c8.3,0,15,6.7,15,15C716.8,610.7,710.1,617.5,701.8,617.5z"/><path d="M701.8,715.9H439.3c-8.3,0-15-6.7-15-15c0-8.3,6.7-15,15-15h262.5c8.3,0,15,6.7,15,15C716.8,709.2,710.1,715.9,701.8,715.9z"/><path d="M701.8,840.6H285.1c-8.3,0-15-6.7-15-15c0-8.3,6.7-15,15-15h416.8c8.3,0,15,6.7,15,15C716.8,833.9,710.1,840.6,701.8,840.6z"/><path d="M320.6,521.1c-44.5,0-80.5,36-80.5,80.5c0,44.5,36.1,80.5,80.5,80.5c44.5,0,80.5-36,80.5-80.5C401.1,557.1,365,521.1,320.6,521.1 M372.9,571.6l-52.7,70c-1.5,1.9-3.6,3.1-6,3.3c-0.2,0-0.5,0-0.7,0c-2.1,0-4.2-0.8-5.7-2.3l-44.5-41.9c-3.4-3.1-3.5-8.4-0.3-11.8c3.1-3.4,8.4-3.5,11.8-0.3l37.7,35.6l47.1-62.6c2.8-3.7,8-4.4,11.7-1.7C374.9,562.7,375.6,567.9,372.9,571.6L372.9,571.6z"/><path d="M320.6,287.9c-44.5,0-80.5,36-80.5,80.5c0,44.5,36.1,80.5,80.5,80.5c44.4,0,80.5-36,80.5-80.5C401.1,324,365,287.9,320.6,287.9 M372.9,338.4l-52.7,70c-1.4,1.9-3.6,3.1-6,3.3c-0.2,0-0.5,0.1-0.7,0.1c-2.1,0-4.2-0.8-5.7-2.3l-44.5-41.9c-3.4-3.2-3.5-8.4-0.3-11.8c3.2-3.3,8.4-3.5,11.8-0.3l37.7,35.6l47.1-62.6c2.8-3.7,8-4.4,11.7-1.6C374.9,329.5,375.6,334.7,372.9,338.4L372.9,338.4z"/><path d="M568.5,70.3C560.9,35.8,530.2,10,493.4,10c-36.7,0-67.5,25.8-75.1,60.3h-75.5v119.3h302.6V70.3H568.5L568.5,70.3z M493.4,125.5c-21.2,0-38.5-17.3-38.5-38.5c0-6,1.5-11.6,4-16.6v0c1.4-2.9,3.2-5.6,5.3-8.1c0.2-0.3,0.5-0.6,0.8-1c0.9-1,1.9-2,2.9-2.9c0.6-0.6,1.3-1.1,2-1.6c0.9-0.7,1.8-1.5,2.8-2.1c1.6-1.1,3.4-2,5.1-2.8c0.7-0.3,1.4-0.5,2.1-0.8c1.5-0.6,3-1,4.5-1.4c0.7-0.2,1.4-0.3,2.1-0.5c2.2-0.4,4.5-0.7,6.8-0.7h0.1c2.4,0,4.6,0.3,6.8,0.7c0.7,0.1,1.4,0.3,2.1,0.5c1.5,0.4,3,0.9,4.5,1.4c0.7,0.3,1.4,0.5,2.1,0.8c1.8,0.8,3.5,1.7,5.2,2.8c1,0.6,1.8,1.3,2.7,2.1c0.7,0.6,1.4,1.1,2,1.7c1,0.9,2,1.8,2.9,2.8c0.3,0.3,0.6,0.7,0.8,1c2,2.4,3.8,5.1,5.2,8c0,0,0,0.1,0,0.1c2.5,5,3.9,10.7,3.9,16.6C531.9,108.2,514.7,125.5,493.4,125.5L493.4,125.5z"/></g>
</svg>