<?xml version="1.0" encoding="utf-8"?>
<!-- Svg Vector Icons : http://www.onlinewebfonts.com/icon -->
<!DOCTYPE svg PUBLIC "-//W3C//DTD SVG 1.1//EN" "http://www.w3.org/Graphics/SVG/1.1/DTD/svg11.dtd">
<svg version="1.1" xmlns="http://www.w3.org/2000/svg" xmlns:xlink="http://www.w3.org/1999/xlink" x="0px" y="0px" viewBox="0 0 1000 1000" enable-background="new 0 0 1000 1000" xml:space="preserve">
<metadata> Svg Vector Icons : http://www.onlinewebfonts.com/icon </metadata>
<g><path fill="#9698a5" d="M414.5,22.6c134,0,242.7,106.9,242.7,238.7c0,131.8-108.7,238.7-242.7,238.7c-134,0-242.7-106.9-242.7-238.7C171.8,129.4,280.5,22.6,414.5,22.6z"/><path fill="#9698a5" d="M414.5,22.6c134,0,242.7,106.9,242.7,238.7c0,131.8-108.7,238.7-242.7,238.7c-134,0-242.7-106.9-242.7-238.7C171.8,129.4,280.5,22.6,414.5,22.6z"/><path fill="#9698a5" d="M323.5,579.6h202.3c173.1,0,313.5,138,313.5,308.3v19.9c0,67.1-140.4,69.6-313.5,69.6H323.5c-173.1,0-313.5,0-313.5-69.6v-19.9C10,717.6,150.4,579.6,323.5,579.6z"/><path fill="#9698a5" d="M751.3,123.1h226.2c6.9,0,12.6,5.6,12.6,12.6V211c0,6.9-5.6,12.6-12.6,12.6H751.3c-6.9,0-12.6-5.6-12.6-12.6v-75.4C738.7,128.7,744.3,123.1,751.3,123.1z"/><path fill="#9698a5" d="M826.6,47.7H902c6.9,0,12.6,5.6,12.6,12.6v226.2c0,6.9-5.6,12.6-12.6,12.6h-75.4c-6.9,0-12.5-5.6-12.5-12.6V60.3C814.1,53.3,819.7,47.7,826.6,47.7z"/></g>
</svg>
