<?xml version="1.0" encoding="utf-8"?>
<!-- Svg Vector Icons : http://www.onlinewebfonts.com/icon -->
<!DOCTYPE svg PUBLIC "-//W3C//DTD SVG 1.1//EN" "http://www.w3.org/Graphics/SVG/1.1/DTD/svg11.dtd">
<svg version="1.1" xmlns="http://www.w3.org/2000/svg" xmlns:xlink="http://www.w3.org/1999/xlink" x="0px" y="0px" viewBox="0 0 1000 1000" enable-background="new 0 0 1000 1000" xml:space="preserve">
<metadata> Svg Vector Icons : http://www.onlinewebfonts.com/icon </metadata>
<g><g><path fill="#9698a5" d="M207,403.8c0-87.4,70.8-158.2,158.2-158.2s158.2,70.8,158.2,158.2c0,87.4-70.8,158.2-158.2,158.2S207,491.2,207,403.8z M432.3,572.8H298.1c-111.7,0-202.5,90.9-202.5,202.5v164.2l0.4,2.6l11.3,3.5C213.8,978.9,306.4,990,382.7,990c148.9,0,235.1-42.5,240.5-45.1l10.6-5.4l1.1,0V775.3C634.8,663.6,544,572.8,432.3,572.8z M634.8,326.4c87.4,0,158.2-70.8,158.2-158.2C793,80.8,722.2,10,634.8,10c-87.4,0-158.2,70.8-158.2,158.2C476.6,255.6,547.5,326.4,634.8,326.4z M702,337.2H567.7c-3.2,0-6.3,0.3-9.5,0.5c12.1,25.5,19.1,53.9,19.1,83.9c0,55.5-23.3,105.5-60.5,141.2c87,25.9,153.5,99.8,168.7,190.8c128.3-5.6,202.3-41.9,207.2-44.3l10.6-5.4l1.1,0V539.7C904.5,428,813.6,337.2,702,337.2z"/></g><g></g><g></g><g></g><g></g><g></g><g></g><g></g><g></g><g></g><g></g><g></g><g></g><g></g><g></g><g></g></g>
</svg>
