<?xml version="1.0" encoding="utf-8"?>
<!-- Svg Vector Icons : http://www.onlinewebfonts.com/icon -->
<!DOCTYPE svg PUBLIC "-//W3C//DTD SVG 1.1//EN" "http://www.w3.org/Graphics/SVG/1.1/DTD/svg11.dtd">
<svg version="1.1" xmlns="http://www.w3.org/2000/svg" xmlns:xlink="http://www.w3.org/1999/xlink" x="0px" y="0px" viewBox="0 0 1000 1000" enable-background="new 0 0 1000 1000" xml:space="preserve">
<metadata> Svg Vector Icons : http://www.onlinewebfonts.com/icon </metadata>
<g><path fill="#6f7e95" d="M758.4,454.9c-12.7,0-24.8,2.9-35.6,8c-6-40.1-40.7-71-82.4-71c-12.9,0-25.2,3-36.1,8.2c-7.1-38.8-41.1-68.3-81.9-68.3c-12.4,0-24.1,2.7-34.7,7.6v-21.8c48.9-28.7,81.8-81.8,81.8-142.4C569.4,84.1,495.3,10,404.2,10c-91.1,0-165.2,74.1-165.2,165.2c0,60.7,32.9,113.7,81.8,142.4v154.6l-2.1-5c-12.9-31.4-43.2-51.7-77.1-51.7c-10.9,0-21.5,2.1-31.7,6.3c-42.5,17.4-62.9,66.3-45.4,108.8l120.7,293.6l0.6,1.4C335.4,926.9,436.3,990,549.1,990c161.3,0,292.6-131.2,292.6-292.6V538.3C841.7,492.3,804.3,454.9,758.4,454.9z M287.7,175.2c0-64.2,52.2-116.5,116.5-116.5c64.3,0,116.5,52.3,116.5,116.5c0,31.6-12.7,60.1-33.1,81.1v-81.4c0-46-37.4-83.4-83.4-83.4c-46,0-83.4,37.4-83.4,83.4v81.5C300.4,235.4,287.7,206.7,287.7,175.2z M793,697.4L793,697.4c0,134.5-109.4,243.9-243.9,243.9c-93.8,0-177.7-52.3-219.1-136.5L209.6,512.1c-3.5-8.6-3.5-18,0.1-26.6c3.6-8.5,10.3-15.2,18.8-18.7c4.2-1.7,8.7-2.6,13.2-2.6c14.1,0,26.7,8.5,32.2,21.8l95.7,225.9V174.9c0-19.2,15.6-34.7,34.7-34.7c19.1,0,34.7,15.6,34.7,34.7v364.8c0,13.4,10.9,24.3,24.3,24.3c13.5,0,24.4-10.9,24.4-24.3V415.2c0-19.1,15.5-34.7,34.7-34.7c19.1,0,34.7,15.5,34.7,34.7v167.4c0,13.5,10.9,24.3,24.3,24.3c13.5,0,24.3-10.9,24.3-24.3V475.3c0-19.1,15.6-34.7,34.7-34.7c19.1,0,34.6,15.6,34.6,34.7v150.2h0.1c0,0,0,0.1,0,0.2c0,13.4,10.9,24.3,24.4,24.3c13.4,0,24.3-10.9,24.3-24.3c0-0.1,0-0.2,0-0.2v-87.2c0-19.1,15.6-34.7,34.7-34.7c19.2,0,34.6,15.6,34.6,34.7L793,697.4L793,697.4z"/></g>
</svg>
