<?xml version="1.0" encoding="utf-8"?>
<!-- Svg Vector Icons : http://www.onlinewebfonts.com/icon -->
<!DOCTYPE svg PUBLIC "-//W3C//DTD SVG 1.1//EN" "http://www.w3.org/Graphics/SVG/1.1/DTD/svg11.dtd">
<svg version="1.1" xmlns="http://www.w3.org/2000/svg" xmlns:xlink="http://www.w3.org/1999/xlink" x="0px" y="0px" viewBox="0 0 1000 1000" enable-background="new 0 0 1000 1000" xml:space="preserve">
<metadata> Svg Vector Icons : http://www.onlinewebfonts.com/icon </metadata>
<g><g><path fill="#9698a5" d="M990,817.3V693.5c0-7.5-6.1-13.7-13.7-13.7H866.2V512.8c0-7.5-6.1-13.7-13.7-13.7H513.6V361.4H665c7.5,0,13.7-6.1,13.7-13.7v-165c0-7.5-6.1-13.7-13.7-13.7H335c-7.5,0-13.7,6.1-13.7,13.7v165c0,7.5,6.1,13.7,13.7,13.7h151.3v137.7H147.4c-7.5,0-13.7,6.1-13.7,13.7v167.1H23.7c-7.5,0-13.7,6.1-13.7,13.7v123.7c0,7.5,6.1,13.7,13.7,13.7h247.5c7.5,0,13.7-6.1,13.7-13.7V693.5c0-7.5-6.1-13.7-13.7-13.7H161V526.4h325.3v153.4H376.2c-7.5,0-13.7,6.1-13.7,13.7v123.7c0,7.5,6.1,13.7,13.7,13.7h247.5c7.5,0,13.7-6.1,13.7-13.7V693.5c0-7.5-6.1-13.7-13.7-13.7H513.6V526.4h325.3v153.4H728.8c-7.5,0-13.7,6.1-13.7,13.7v123.7c0,7.5,6.1,13.7,13.7,13.7h247.5C983.9,830.9,990,824.8,990,817.3z M348.6,334.1V196.4h302.7v137.7H500H348.6z M257.5,707.2v96.4H37.3v-96.4h110.1H257.5z M610.1,707.2v96.4H389.9v-96.4H500H610.1z M962.7,803.6H742.5v-96.4h110.1h110.1V803.6z"/></g><g></g><g></g><g></g><g></g><g></g><g></g><g></g><g></g><g></g><g></g><g></g><g></g><g></g><g></g><g></g></g>
</svg>
